<svg width="50" height="35" viewBox="0 0 50 35" fill="none" xmlns="http://www.w3.org/2000/svg">
<path d="M50 19.876L41.289 12.951V2.081C41.2891 1.89436 41.2525 1.70952 41.1811 1.53705C41.1097 1.36459 41.0051 1.20789 40.8731 1.07591C40.7411 0.94393 40.5844 0.839264 40.4119 0.767899C40.2395 0.696533 40.0546 0.659868 39.868 0.66H35.502C35.3154 0.659868 35.1305 0.696533 34.958 0.767899C34.7856 0.839264 34.6289 0.94393 34.4969 1.07591C34.3649 1.20789 34.2603 1.36459 34.1889 1.53705C34.1175 1.70952 34.0809 1.89436 34.081 2.081V7.219L25 0L0 19.876L3.192 23.891L6.834 20.996V31.704C6.834 32.3416 7.08728 32.953 7.53812 33.4039C7.98895 33.8547 8.60042 34.108 9.238 34.108H40.762C41.3996 34.108 42.011 33.8547 42.4619 33.4039C42.9127 32.953 43.166 32.3416 43.166 31.704V20.995L46.808 23.89L50 19.876Z" fill="#E0E0E0"/>
</svg>
