<svg width="76" height="76" viewBox="0 0 76 76" fill="none" xmlns="http://www.w3.org/2000/svg">
<path d="M38.0206 28.6153V32.9222H10.007V43.0774H38.0206V62.4102L64.6449 37.9998L38.0206 13.5894V28.6153Z" fill="#030303" fill-opacity="0.4"/>
<path d="M36.2209 6.09581C35.2617 5.21649 33.7144 5.89669 33.7144 7.19857V28.6154H7.79305C7.23794 28.6154 6.70557 28.8359 6.31305 29.2284C5.92053 29.6209 5.70001 30.1533 5.70001 30.7084V45.2913C5.70001 45.8464 5.92053 46.3788 6.31305 46.7713C6.70557 47.1638 7.23794 47.3843 7.79305 47.3843H33.7144V68.8011C33.7144 70.103 35.2617 70.7832 36.2209 69.9039L69.8151 39.1026C70.1381 38.8062 70.3 38.4026 70.3 37.9998C70.3 37.597 70.1381 37.1935 69.8151 36.8971L36.2209 6.09581ZM38.0205 62.4103V43.0774H10.0069V32.9223H38.0213V13.5894L64.6449 37.9998L38.0205 62.4103Z" fill="#030303" fill-opacity="0.4"/>
</svg>
